<svg xmlns="http://www.w3.org/2000/svg" xmlns:xlink="http://www.w3.org/1999/xlink" version="1.1" x="0px" y="0px" viewBox="0 0 100 125" enable-background="new 0 0 100 100" xml:space="preserve"><g><polygon points="28.135,51.198 47.623,38.505 42.25,32.681 45.827,24.762 46.765,18.203 44.816,15.8 41.144,15.991 32.287,25.017    24.878,25.787 18.32,28.765 13.893,34.725 5.343,40.576 5.209,43.631 6.995,47.582 12.104,51.331 19.513,51.075 26.245,49.198  "/><polygon points="90.204,65.847 82.272,51.075 87.638,36.513 82.955,25.955 81.319,27.101 83.55,36.513 78.441,48.521 50.339,41.45    50.257,41.362 32.105,55.403 32.201,55.5 43.015,84.2 49.147,84.2 50.211,71.53 58.515,64.952 68.776,65.287 77.128,70.333    87.383,84.2 94.791,84.2  "/></g></svg>